<svg width="22" height="24" viewBox="0 0 22 24" fill="none" xmlns="http://www.w3.org/2000/svg">
<path fill-rule="evenodd" clip-rule="evenodd" d="M6.7826 12.4668C2.26546 11.2174 0 8.27919 0 3.69337C0 2.5126 0.713964 1.81235 1.93593 1.81235H4.14645C4.35239 0.672775 5.16247 0 6.54919 0H15.1304C16.5172 0 17.3272 0.672775 17.5332 1.81235H19.7437C20.9657 1.81235 21.6796 2.5126 21.6796 3.69337C21.6796 8.27919 19.4142 11.2037 14.9108 12.4668C14.4302 13.016 13.8947 13.4966 13.3867 13.8535V18.4943H14.5538C16.1876 18.4943 17.0252 19.4279 17.0252 20.9657V23.0801C17.0252 23.6293 16.5858 24 16.0778 24H5.60183C5.09383 24 4.65447 23.6293 4.65447 23.0801V20.9657C4.65447 19.4279 5.492 18.4943 7.12585 18.4943H8.2929V13.8398C7.7849 13.4828 7.26316 13.016 6.7826 12.4668ZM5.93136 2.47141V5.90389C5.93136 9.8444 9.52859 13.0572 10.8467 13.0572C12.151 13.0572 15.7483 9.8444 15.7483 5.90389V2.47141C15.7483 2.10069 15.5011 1.85355 15.1304 1.85355H6.54919C6.1785 1.85355 5.93136 2.10069 5.93136 2.47141ZM6.50802 22.1465V20.9657C6.50802 20.595 6.75516 20.3478 7.12585 20.3478H14.5538C14.9245 20.3478 15.1716 20.595 15.1716 20.9657V22.1465H6.50802ZM17.6018 5.60184C17.6018 7.27688 17.1625 8.82838 16.476 10.1465C18.7551 9.06179 19.9359 6.94736 19.9359 3.88559C19.9359 3.76201 19.8398 3.6659 19.7162 3.6659H17.6018V5.60184ZM1.74371 3.88559C1.74371 3.76201 1.83982 3.6659 1.96337 3.6659H4.07781V5.60184C4.07781 7.27688 4.51717 8.82838 5.20367 10.1465C2.92448 9.06179 1.74371 6.94736 1.74371 3.88559ZM10.1465 14.8009V18.4943H11.5332V14.8009C11.286 14.8696 11.0664 14.897 10.8467 14.897C10.6133 14.897 10.3936 14.8696 10.1465 14.8009Z" fill="black"/>
</svg>
