<svg width="18" height="18" viewBox="0 0 18 18" fill="none" xmlns="http://www.w3.org/2000/svg">
<path fill-rule="evenodd" clip-rule="evenodd" d="M7.34318 14.6748C3.29058 14.6748 0 11.3958 0 7.34317C0 3.29057 3.29058 0 7.34318 0C11.3958 0 14.6748 3.29057 14.6748 7.34317C14.6748 8.98269 14.1437 10.4836 13.2316 11.7075L17.5035 15.991C17.6998 16.2104 17.8268 16.499 17.8268 16.8223C17.8268 17.492 17.3419 18 16.6722 18C16.3605 18 16.0603 17.8961 15.8178 17.6652L11.5228 13.3586C10.3335 14.1899 8.90185 14.6748 7.34318 14.6748ZM7.34318 1.77806C4.26042 1.77806 1.77807 4.26043 1.77807 7.34317C1.77807 10.4144 4.26042 12.9083 7.34318 12.9083C10.4144 12.9083 12.9083 10.4144 12.9083 7.34317C12.9083 4.26043 10.4144 1.77806 7.34318 1.77806Z" fill="black"/>
</svg>
