<svg width="15" height="24" viewBox="0 0 15 24" fill="none" xmlns="http://www.w3.org/2000/svg">
<path fill-rule="evenodd" clip-rule="evenodd" d="M3.26854 22.6058C2.18515 23.6628 1.83952 24 1.26739 24C0.459603 24 0 23.4642 0 22.5194V3.28556C0 1.09988 1.07241 0 3.20333 0H11.7967C13.9276 0 15 1.09988 15 3.28556V22.5194C15 23.4642 14.5404 24 13.7465 24C13.1771 24 12.847 23.6814 11.8224 22.6927C11.7693 22.6414 11.7143 22.5884 11.6574 22.5335L7.60445 18.557C7.56267 18.5006 7.45125 18.5006 7.39555 18.557L3.34261 22.5335L3.26854 22.6058ZM1.96377 20.4324C1.96377 20.6439 2.13092 20.6863 2.28412 20.5452L6.86629 16.1316C7.25626 15.7509 7.74374 15.7509 8.13371 16.1316L12.7298 20.5452C12.8691 20.6863 13.0362 20.6439 13.0362 20.4324V3.31374C13.0362 2.43949 12.5766 1.98826 11.6992 1.98826H3.30082C2.42338 1.98826 1.96377 2.43949 1.96377 3.31374V20.4324Z" fill="black"/>
</svg>
