<svg width="27" height="24" viewBox="0 0 27 24" fill="none" xmlns="http://www.w3.org/2000/svg">
<path fill-rule="evenodd" clip-rule="evenodd" d="M13.0589 13.0365C13.9002 13.0488 14.7293 12.8158 15.7536 12.3497L20.7528 10.0554V13.7478C20.7528 15.8816 17.6923 17.6108 13.0589 17.6108C10.7069 17.6108 8.76025 17.1652 7.41344 16.4474V10.9955L10.3642 12.3497C11.3884 12.8158 12.2297 13.0488 13.0589 13.0365ZM6.01123 10.3519L7.41344 10.9955V10.2404L8.53922 9.62306L11.0226 10.7555C11.8274 11.1357 12.437 11.2951 13.0589 11.2951C13.6807 11.2951 14.2904 11.1357 15.0951 10.7555L23.7279 6.81892C23.8864 6.74536 23.9718 6.64723 23.9718 6.52462C23.9718 6.3897 23.8864 6.2916 23.7279 6.21801L15.0951 2.28145C14.2904 1.91356 13.6807 1.74187 13.0589 1.74187C12.437 1.74187 11.8274 1.91356 11.0226 2.28145L2.38985 6.21801C2.23136 6.2916 2.15819 6.3897 2.15819 6.52462C2.15819 6.64723 2.23136 6.74536 2.38985 6.81892L7.04073 8.93974L6.01123 9.49237L7.41344 10.2404L6.01123 9.55368V10.3519ZM6.01123 15.3689V10.3519L5.36499 10.0553V8.62166H3.60919V9.24951L1.01204 8.05754C0.329221 7.75096 0 7.13779 0 6.52462C0 5.91142 0.329221 5.286 1.01204 4.97941L10.3642 0.687218C11.3884 0.2212 12.2297 -0.0117968 13.0589 0.00045957C13.9002 -0.0117968 14.7293 0.2212 15.7536 0.687218L25.1058 4.97941C25.7885 5.286 26.1176 5.91142 26.1176 6.52462C26.1176 7.13779 25.7885 7.75096 25.1058 8.05754L22.5086 9.24954V8.62166H20.7528V10.0554L22.5086 9.24954V13.7478C22.5086 16.8749 18.7531 19.2663 13.0589 19.2663C10.8521 19.2663 8.93412 18.9056 7.41344 18.2812V16.4474C6.82692 16.1347 6.35416 15.7705 6.01123 15.3689ZM6.01123 17.561C4.47832 16.582 3.60919 15.2497 3.60919 13.7478V9.24951L5.36499 10.0553V13.7478C5.36499 14.3267 5.59031 14.8759 6.01123 15.3689V17.561ZM6.01123 18.9279V17.561C6.4304 17.8287 6.8992 18.07 7.41344 18.2812V18.9329C7.24483 18.8625 7.05218 18.8248 6.84037 18.8248H6.57212C6.3654 18.8248 6.17692 18.8607 6.01123 18.9279ZM6.01123 18.9279V19.8427H7.41344V18.9329C7.87571 19.126 8.15722 19.5652 8.15722 20.1493V22.6756C8.15722 23.4727 7.63292 24 6.84037 24H6.57212C5.77957 24 5.25524 23.4727 5.25524 22.6756V20.1493C5.25524 19.5601 5.54172 19.1183 6.01123 18.9279ZM11.0752 6.77403C11.041 6.69466 11.0226 6.61132 11.0226 6.52462C11.0226 5.86237 12.0956 5.40864 13.1077 5.40864C14.1197 5.40864 15.1805 5.86237 15.1805 6.52462C15.1805 7.18684 14.1197 7.65283 13.1077 7.65283C12.8371 7.65283 12.5623 7.61954 12.3047 7.5581L12.937 7.21135L12.3395 6.09539L11.0752 6.77403ZM11.0752 6.77403L7.04073 8.93974L8.53922 9.62306L12.3047 7.5581C11.7248 7.41978 11.2326 7.13883 11.0752 6.77403Z" fill="black" fill-opacity="0.25"/>
</svg>
